<mxfile host="app.diagrams.net" modified="2023-10-08T02:58:34.190Z" agent="Mozilla/5.0 (Windows NT 10.0; Win64; x64) AppleWebKit/537.36 (KHTML, like Gecko) Chrome/117.0.0.0 Safari/537.36" etag="Sw7DL6sF5nIJ558gEgCl" version="22.0.4" type="device">
  <diagram name="Page-1" id="EUY-lggJAvRB08sBd_qi">
    <mxGraphModel dx="1047" dy="540" grid="1" gridSize="10" guides="1" tooltips="1" connect="1" arrows="1" fold="1" page="1" pageScale="1" pageWidth="850" pageHeight="1100" math="0" shadow="0">
      <root>
        <mxCell id="0" />
        <mxCell id="1" parent="0" />
        <mxCell id="CiyafRM-gf9ek4KLn9La-1" value="" style="endArrow=none;html=1;rounded=0;exitX=0.025;exitY=1.022;exitDx=0;exitDy=0;exitPerimeter=0;" parent="1" edge="1" source="CiyafRM-gf9ek4KLn9La-143">
          <mxGeometry width="50" height="50" relative="1" as="geometry">
            <mxPoint x="160" y="80" as="sourcePoint" />
            <mxPoint x="1040" y="80" as="targetPoint" />
          </mxGeometry>
        </mxCell>
        <mxCell id="CiyafRM-gf9ek4KLn9La-2" value="" style="endArrow=none;html=1;rounded=0;exitX=1.04;exitY=0.987;exitDx=0;exitDy=0;exitPerimeter=0;" parent="1" edge="1" source="bnBJ0OR8efubqq6eYce0-23">
          <mxGeometry width="50" height="50" relative="1" as="geometry">
            <mxPoint x="240" y="520" as="sourcePoint" />
            <mxPoint x="240" y="80" as="targetPoint" />
          </mxGeometry>
        </mxCell>
        <mxCell id="CiyafRM-gf9ek4KLn9La-15" value="" style="endArrow=none;html=1;rounded=0;" parent="1" edge="1">
          <mxGeometry width="50" height="50" relative="1" as="geometry">
            <mxPoint x="320" y="560" as="sourcePoint" />
            <mxPoint x="320" y="80" as="targetPoint" />
          </mxGeometry>
        </mxCell>
        <mxCell id="CiyafRM-gf9ek4KLn9La-87" value="M" style="edgeLabel;html=1;align=center;verticalAlign=middle;resizable=0;points=[];" parent="CiyafRM-gf9ek4KLn9La-15" vertex="1" connectable="0">
          <mxGeometry x="0.77" y="-11" relative="1" as="geometry">
            <mxPoint x="-1" y="-6" as="offset" />
          </mxGeometry>
        </mxCell>
        <mxCell id="CiyafRM-gf9ek4KLn9La-18" value="" style="endArrow=none;html=1;rounded=0;" parent="1" edge="1">
          <mxGeometry width="50" height="50" relative="1" as="geometry">
            <mxPoint x="400" y="560" as="sourcePoint" />
            <mxPoint x="400" y="78" as="targetPoint" />
          </mxGeometry>
        </mxCell>
        <mxCell id="CiyafRM-gf9ek4KLn9La-19" value="" style="endArrow=none;html=1;rounded=0;" parent="1" edge="1">
          <mxGeometry width="50" height="50" relative="1" as="geometry">
            <mxPoint x="480" y="560" as="sourcePoint" />
            <mxPoint x="480" y="80" as="targetPoint" />
          </mxGeometry>
        </mxCell>
        <mxCell id="CiyafRM-gf9ek4KLn9La-20" value="" style="endArrow=none;html=1;rounded=0;" parent="1" edge="1">
          <mxGeometry width="50" height="50" relative="1" as="geometry">
            <mxPoint x="560" y="560" as="sourcePoint" />
            <mxPoint x="560" y="80" as="targetPoint" />
          </mxGeometry>
        </mxCell>
        <mxCell id="CiyafRM-gf9ek4KLn9La-21" value="" style="endArrow=none;html=1;rounded=0;" parent="1" edge="1">
          <mxGeometry width="50" height="50" relative="1" as="geometry">
            <mxPoint x="640" y="560" as="sourcePoint" />
            <mxPoint x="640" y="80" as="targetPoint" />
          </mxGeometry>
        </mxCell>
        <mxCell id="CiyafRM-gf9ek4KLn9La-23" value="" style="endArrow=none;html=1;rounded=0;" parent="1" edge="1">
          <mxGeometry width="50" height="50" relative="1" as="geometry">
            <mxPoint x="800" y="560" as="sourcePoint" />
            <mxPoint x="800" y="80" as="targetPoint" />
          </mxGeometry>
        </mxCell>
        <mxCell id="CiyafRM-gf9ek4KLn9La-24" value="" style="endArrow=none;html=1;rounded=0;" parent="1" edge="1">
          <mxGeometry width="50" height="50" relative="1" as="geometry">
            <mxPoint x="880" y="560" as="sourcePoint" />
            <mxPoint x="880" y="80" as="targetPoint" />
          </mxGeometry>
        </mxCell>
        <mxCell id="CiyafRM-gf9ek4KLn9La-25" value="&lt;font style=&quot;font-size: 20px;&quot;&gt;1&lt;/font&gt;" style="text;html=1;align=center;verticalAlign=middle;resizable=0;points=[];autosize=1;strokeColor=none;fillColor=none;" parent="1" vertex="1">
          <mxGeometry x="260" y="80" width="30" height="40" as="geometry" />
        </mxCell>
        <mxCell id="CiyafRM-gf9ek4KLn9La-26" value="&lt;font style=&quot;font-size: 20px;&quot;&gt;2&lt;/font&gt;" style="text;html=1;align=center;verticalAlign=middle;resizable=0;points=[];autosize=1;strokeColor=none;fillColor=none;" parent="1" vertex="1">
          <mxGeometry x="350" y="80" width="30" height="40" as="geometry" />
        </mxCell>
        <mxCell id="CiyafRM-gf9ek4KLn9La-27" value="&lt;font style=&quot;font-size: 20px;&quot;&gt;3&lt;/font&gt;" style="text;html=1;align=center;verticalAlign=middle;resizable=0;points=[];autosize=1;strokeColor=none;fillColor=none;" parent="1" vertex="1">
          <mxGeometry x="425" y="80" width="30" height="40" as="geometry" />
        </mxCell>
        <mxCell id="CiyafRM-gf9ek4KLn9La-28" value="&lt;font style=&quot;font-size: 20px;&quot;&gt;4&lt;/font&gt;" style="text;html=1;align=center;verticalAlign=middle;resizable=0;points=[];autosize=1;strokeColor=none;fillColor=none;" parent="1" vertex="1">
          <mxGeometry x="505" y="80" width="30" height="40" as="geometry" />
        </mxCell>
        <mxCell id="CiyafRM-gf9ek4KLn9La-31" value="&lt;font style=&quot;font-size: 20px;&quot;&gt;5&lt;/font&gt;" style="text;html=1;align=center;verticalAlign=middle;resizable=0;points=[];autosize=1;strokeColor=none;fillColor=none;" parent="1" vertex="1">
          <mxGeometry x="585" y="80" width="30" height="40" as="geometry" />
        </mxCell>
        <mxCell id="CiyafRM-gf9ek4KLn9La-32" value="&lt;font style=&quot;font-size: 20px;&quot;&gt;6&lt;/font&gt;" style="text;html=1;align=center;verticalAlign=middle;resizable=0;points=[];autosize=1;strokeColor=none;fillColor=none;" parent="1" vertex="1">
          <mxGeometry x="665" y="78" width="30" height="40" as="geometry" />
        </mxCell>
        <mxCell id="CiyafRM-gf9ek4KLn9La-34" value="&lt;font style=&quot;font-size: 20px;&quot;&gt;7&lt;/font&gt;" style="text;html=1;align=center;verticalAlign=middle;resizable=0;points=[];autosize=1;strokeColor=none;fillColor=none;" parent="1" vertex="1">
          <mxGeometry x="740" y="80" width="30" height="40" as="geometry" />
        </mxCell>
        <mxCell id="CiyafRM-gf9ek4KLn9La-35" value="&lt;font style=&quot;font-size: 20px;&quot;&gt;8&lt;/font&gt;" style="text;html=1;align=center;verticalAlign=middle;resizable=0;points=[];autosize=1;strokeColor=none;fillColor=none;" parent="1" vertex="1">
          <mxGeometry x="830" y="78" width="30" height="40" as="geometry" />
        </mxCell>
        <mxCell id="CiyafRM-gf9ek4KLn9La-36" value="" style="endArrow=none;html=1;rounded=0;" parent="1" edge="1">
          <mxGeometry width="50" height="50" relative="1" as="geometry">
            <mxPoint x="960" y="560" as="sourcePoint" />
            <mxPoint x="960" y="80" as="targetPoint" />
          </mxGeometry>
        </mxCell>
        <mxCell id="CiyafRM-gf9ek4KLn9La-37" value="" style="endArrow=none;html=1;rounded=0;" parent="1" edge="1">
          <mxGeometry width="50" height="50" relative="1" as="geometry">
            <mxPoint x="1040" y="560" as="sourcePoint" />
            <mxPoint x="1040" y="80" as="targetPoint" />
          </mxGeometry>
        </mxCell>
        <mxCell id="CiyafRM-gf9ek4KLn9La-38" value="&lt;font style=&quot;font-size: 20px;&quot;&gt;9&lt;/font&gt;" style="text;html=1;align=center;verticalAlign=middle;resizable=0;points=[];autosize=1;strokeColor=none;fillColor=none;" parent="1" vertex="1">
          <mxGeometry x="905" y="78" width="30" height="40" as="geometry" />
        </mxCell>
        <mxCell id="CiyafRM-gf9ek4KLn9La-39" value="&lt;font style=&quot;font-size: 20px;&quot;&gt;10&lt;/font&gt;" style="text;html=1;align=center;verticalAlign=middle;resizable=0;points=[];autosize=1;strokeColor=none;fillColor=none;" parent="1" vertex="1">
          <mxGeometry x="970" y="80" width="50" height="40" as="geometry" />
        </mxCell>
        <mxCell id="CiyafRM-gf9ek4KLn9La-89" value="T" style="edgeLabel;html=1;align=center;verticalAlign=middle;resizable=0;points=[];" parent="1" vertex="1" connectable="0">
          <mxGeometry x="264" y="139" as="geometry">
            <mxPoint x="82" y="-10" as="offset" />
          </mxGeometry>
        </mxCell>
        <mxCell id="CiyafRM-gf9ek4KLn9La-91" value="W" style="edgeLabel;html=1;align=center;verticalAlign=middle;resizable=0;points=[];" parent="1" vertex="1" connectable="0">
          <mxGeometry x="273" y="125" as="geometry">
            <mxPoint x="88" y="4" as="offset" />
          </mxGeometry>
        </mxCell>
        <mxCell id="CiyafRM-gf9ek4KLn9La-92" value="T" style="edgeLabel;html=1;align=center;verticalAlign=middle;resizable=0;points=[];" parent="1" vertex="1" connectable="0">
          <mxGeometry x="300" y="136" as="geometry">
            <mxPoint x="77" y="-7" as="offset" />
          </mxGeometry>
        </mxCell>
        <mxCell id="CiyafRM-gf9ek4KLn9La-93" value="F" style="edgeLabel;html=1;align=center;verticalAlign=middle;resizable=0;points=[];" parent="1" vertex="1" connectable="0">
          <mxGeometry x="321" y="141" as="geometry">
            <mxPoint x="71" y="-12" as="offset" />
          </mxGeometry>
        </mxCell>
        <mxCell id="CiyafRM-gf9ek4KLn9La-94" value="M" style="edgeLabel;html=1;align=center;verticalAlign=middle;resizable=0;points=[];" parent="1" vertex="1" connectable="0">
          <mxGeometry x="326" y="128" as="geometry">
            <mxPoint x="81" y="1" as="offset" />
          </mxGeometry>
        </mxCell>
        <mxCell id="CiyafRM-gf9ek4KLn9La-95" value="T" style="edgeLabel;html=1;align=center;verticalAlign=middle;resizable=0;points=[];" parent="1" vertex="1" connectable="0">
          <mxGeometry x="340" y="139" as="geometry">
            <mxPoint x="82" y="-10" as="offset" />
          </mxGeometry>
        </mxCell>
        <mxCell id="CiyafRM-gf9ek4KLn9La-99" value="W" style="edgeLabel;html=1;align=center;verticalAlign=middle;resizable=0;points=[];" parent="1" vertex="1" connectable="0">
          <mxGeometry x="278" y="125" as="geometry">
            <mxPoint x="158" y="4" as="offset" />
          </mxGeometry>
        </mxCell>
        <mxCell id="CiyafRM-gf9ek4KLn9La-100" value="T" style="edgeLabel;html=1;align=center;verticalAlign=middle;resizable=0;points=[];" parent="1" vertex="1" connectable="0">
          <mxGeometry x="305" y="138" as="geometry">
            <mxPoint x="147" y="-9" as="offset" />
          </mxGeometry>
        </mxCell>
        <mxCell id="CiyafRM-gf9ek4KLn9La-101" value="F" style="edgeLabel;html=1;align=center;verticalAlign=middle;resizable=0;points=[];" parent="1" vertex="1" connectable="0">
          <mxGeometry x="469.9988888888889" y="128.44000000000005" as="geometry" />
        </mxCell>
        <mxCell id="CiyafRM-gf9ek4KLn9La-102" value="M" style="edgeLabel;html=1;align=center;verticalAlign=middle;resizable=0;points=[];" parent="1" vertex="1" connectable="0">
          <mxGeometry x="239" y="129" as="geometry">
            <mxPoint x="247" as="offset" />
          </mxGeometry>
        </mxCell>
        <mxCell id="CiyafRM-gf9ek4KLn9La-103" value="T" style="edgeLabel;html=1;align=center;verticalAlign=middle;resizable=0;points=[];" parent="1" vertex="1" connectable="0">
          <mxGeometry x="270" y="128" as="geometry">
            <mxPoint x="232" y="1" as="offset" />
          </mxGeometry>
        </mxCell>
        <mxCell id="CiyafRM-gf9ek4KLn9La-104" value="W" style="edgeLabel;html=1;align=center;verticalAlign=middle;resizable=0;points=[];" parent="1" vertex="1" connectable="0">
          <mxGeometry x="283" y="137" as="geometry">
            <mxPoint x="237" y="-8" as="offset" />
          </mxGeometry>
        </mxCell>
        <mxCell id="CiyafRM-gf9ek4KLn9La-105" value="T" style="edgeLabel;html=1;align=center;verticalAlign=middle;resizable=0;points=[];" parent="1" vertex="1" connectable="0">
          <mxGeometry x="307" y="133" as="geometry">
            <mxPoint x="231" y="-4" as="offset" />
          </mxGeometry>
        </mxCell>
        <mxCell id="CiyafRM-gf9ek4KLn9La-107" value="F" style="edgeLabel;html=1;align=center;verticalAlign=middle;resizable=0;points=[];" parent="1" vertex="1" connectable="0">
          <mxGeometry x="323" y="137" as="geometry">
            <mxPoint x="230" y="-8" as="offset" />
          </mxGeometry>
        </mxCell>
        <mxCell id="CiyafRM-gf9ek4KLn9La-108" value="M" style="edgeLabel;html=1;align=center;verticalAlign=middle;resizable=0;points=[];" parent="1" vertex="1" connectable="0">
          <mxGeometry x="252" y="138" as="geometry">
            <mxPoint x="316" y="-9" as="offset" />
          </mxGeometry>
        </mxCell>
        <mxCell id="CiyafRM-gf9ek4KLn9La-109" value="T" style="edgeLabel;html=1;align=center;verticalAlign=middle;resizable=0;points=[];" parent="1" vertex="1" connectable="0">
          <mxGeometry x="260" y="138" as="geometry">
            <mxPoint x="325" y="-9" as="offset" />
          </mxGeometry>
        </mxCell>
        <mxCell id="CiyafRM-gf9ek4KLn9La-112" value="W" style="edgeLabel;html=1;align=center;verticalAlign=middle;resizable=0;points=[];" parent="1" vertex="1" connectable="0">
          <mxGeometry x="277" y="127" as="geometry">
            <mxPoint x="325" y="2" as="offset" />
          </mxGeometry>
        </mxCell>
        <mxCell id="CiyafRM-gf9ek4KLn9La-113" value="T" style="edgeLabel;html=1;align=center;verticalAlign=middle;resizable=0;points=[];" parent="1" vertex="1" connectable="0">
          <mxGeometry x="300" y="137" as="geometry">
            <mxPoint x="320" y="-8" as="offset" />
          </mxGeometry>
        </mxCell>
        <mxCell id="CiyafRM-gf9ek4KLn9La-114" value="F" style="edgeLabel;html=1;align=center;verticalAlign=middle;resizable=0;points=[];" parent="1" vertex="1" connectable="0">
          <mxGeometry x="322" y="139.00000000000006" as="geometry">
            <mxPoint x="311" y="-10" as="offset" />
          </mxGeometry>
        </mxCell>
        <mxCell id="CiyafRM-gf9ek4KLn9La-116" value="M" style="edgeLabel;html=1;align=center;verticalAlign=middle;resizable=0;points=[];" parent="1" vertex="1" connectable="0">
          <mxGeometry x="242" y="141" as="geometry">
            <mxPoint x="406" y="-12" as="offset" />
          </mxGeometry>
        </mxCell>
        <mxCell id="CiyafRM-gf9ek4KLn9La-117" value="T" style="edgeLabel;html=1;align=center;verticalAlign=middle;resizable=0;points=[];" parent="1" vertex="1" connectable="0">
          <mxGeometry x="268" y="136" as="geometry">
            <mxPoint x="395" y="-7" as="offset" />
          </mxGeometry>
        </mxCell>
        <mxCell id="CiyafRM-gf9ek4KLn9La-118" value="W" style="edgeLabel;html=1;align=center;verticalAlign=middle;resizable=0;points=[];" parent="1" vertex="1" connectable="0">
          <mxGeometry x="284" y="127" as="geometry">
            <mxPoint x="397" y="2" as="offset" />
          </mxGeometry>
        </mxCell>
        <mxCell id="CiyafRM-gf9ek4KLn9La-119" value="T" style="edgeLabel;html=1;align=center;verticalAlign=middle;resizable=0;points=[];" parent="1" vertex="1" connectable="0">
          <mxGeometry x="299" y="138" as="geometry">
            <mxPoint x="401" y="-9" as="offset" />
          </mxGeometry>
        </mxCell>
        <mxCell id="CiyafRM-gf9ek4KLn9La-120" value="F" style="edgeLabel;html=1;align=center;verticalAlign=middle;resizable=0;points=[];" parent="1" vertex="1" connectable="0">
          <mxGeometry x="313" y="141" as="geometry">
            <mxPoint x="399" y="-12" as="offset" />
          </mxGeometry>
        </mxCell>
        <mxCell id="CiyafRM-gf9ek4KLn9La-121" value="M" style="edgeLabel;html=1;align=center;verticalAlign=middle;resizable=0;points=[];" parent="1" vertex="1" connectable="0">
          <mxGeometry x="262" y="138" as="geometry">
            <mxPoint x="466" y="-9" as="offset" />
          </mxGeometry>
        </mxCell>
        <mxCell id="CiyafRM-gf9ek4KLn9La-122" value="T" style="edgeLabel;html=1;align=center;verticalAlign=middle;resizable=0;points=[];" parent="1" vertex="1" connectable="0">
          <mxGeometry x="269" y="138.6644732064945" as="geometry">
            <mxPoint x="473" y="-10" as="offset" />
          </mxGeometry>
        </mxCell>
        <mxCell id="CiyafRM-gf9ek4KLn9La-123" value="W" style="edgeLabel;html=1;align=center;verticalAlign=middle;resizable=0;points=[];" parent="1" vertex="1" connectable="0">
          <mxGeometry x="280" y="136" as="geometry">
            <mxPoint x="479" y="-7" as="offset" />
          </mxGeometry>
        </mxCell>
        <mxCell id="CiyafRM-gf9ek4KLn9La-124" value="T" style="edgeLabel;html=1;align=center;verticalAlign=middle;resizable=0;points=[];" parent="1" vertex="1" connectable="0">
          <mxGeometry x="297" y="134" as="geometry">
            <mxPoint x="480" y="-5" as="offset" />
          </mxGeometry>
        </mxCell>
        <mxCell id="CiyafRM-gf9ek4KLn9La-125" value="F" style="edgeLabel;html=1;align=center;verticalAlign=middle;resizable=0;points=[];" parent="1" vertex="1" connectable="0">
          <mxGeometry x="320" y="138" as="geometry">
            <mxPoint x="471" y="-9" as="offset" />
          </mxGeometry>
        </mxCell>
        <mxCell id="CiyafRM-gf9ek4KLn9La-126" value="M" style="edgeLabel;html=1;align=center;verticalAlign=middle;resizable=0;points=[];" parent="1" vertex="1" connectable="0">
          <mxGeometry x="254" y="136" as="geometry">
            <mxPoint x="555" y="-7" as="offset" />
          </mxGeometry>
        </mxCell>
        <mxCell id="CiyafRM-gf9ek4KLn9La-127" value="T" style="edgeLabel;html=1;align=center;verticalAlign=middle;resizable=0;points=[];" parent="1" vertex="1" connectable="0">
          <mxGeometry x="263" y="138.6644732064945" as="geometry">
            <mxPoint x="564" y="-9" as="offset" />
          </mxGeometry>
        </mxCell>
        <mxCell id="CiyafRM-gf9ek4KLn9La-128" value="W" style="edgeLabel;html=1;align=center;verticalAlign=middle;resizable=0;points=[];" parent="1" vertex="1" connectable="0">
          <mxGeometry x="286" y="136" as="geometry">
            <mxPoint x="557" y="-7" as="offset" />
          </mxGeometry>
        </mxCell>
        <mxCell id="CiyafRM-gf9ek4KLn9La-129" value="T" style="edgeLabel;html=1;align=center;verticalAlign=middle;resizable=0;points=[];" parent="1" vertex="1" connectable="0">
          <mxGeometry x="300" y="138.44444444444446" as="geometry">
            <mxPoint x="560" y="-9" as="offset" />
          </mxGeometry>
        </mxCell>
        <mxCell id="CiyafRM-gf9ek4KLn9La-130" value="F" style="edgeLabel;html=1;align=center;verticalAlign=middle;resizable=0;points=[];" parent="1" vertex="1" connectable="0">
          <mxGeometry x="321" y="137" as="geometry">
            <mxPoint x="552" y="-8" as="offset" />
          </mxGeometry>
        </mxCell>
        <mxCell id="CiyafRM-gf9ek4KLn9La-131" value="M" style="edgeLabel;html=1;align=center;verticalAlign=middle;resizable=0;points=[];" parent="1" vertex="1" connectable="0">
          <mxGeometry x="255" y="139" as="geometry">
            <mxPoint x="633" y="-10" as="offset" />
          </mxGeometry>
        </mxCell>
        <mxCell id="CiyafRM-gf9ek4KLn9La-132" value="T" style="edgeLabel;html=1;align=center;verticalAlign=middle;resizable=0;points=[];rotation=90;" parent="1" vertex="1" connectable="0">
          <mxGeometry x="260" y="143" as="geometry">
            <mxPoint x="644" y="-14" as="offset" />
          </mxGeometry>
        </mxCell>
        <mxCell id="CiyafRM-gf9ek4KLn9La-133" value="T" style="edgeLabel;html=1;align=center;verticalAlign=middle;resizable=0;points=[];rotation=90;" parent="1" vertex="1" connectable="0">
          <mxGeometry x="270" y="153" as="geometry">
            <mxPoint x="644" y="-14" as="offset" />
          </mxGeometry>
        </mxCell>
        <mxCell id="CiyafRM-gf9ek4KLn9La-134" value="W" style="edgeLabel;html=1;align=center;verticalAlign=middle;resizable=0;points=[];" parent="1" vertex="1" connectable="0">
          <mxGeometry x="284" y="135" as="geometry">
            <mxPoint x="637" y="-6" as="offset" />
          </mxGeometry>
        </mxCell>
        <mxCell id="CiyafRM-gf9ek4KLn9La-135" value="T" style="edgeLabel;html=1;align=center;verticalAlign=middle;resizable=0;points=[];" parent="1" vertex="1" connectable="0">
          <mxGeometry x="269" y="138.6644732064945" as="geometry">
            <mxPoint x="635" y="-10" as="offset" />
          </mxGeometry>
        </mxCell>
        <mxCell id="CiyafRM-gf9ek4KLn9La-136" value="T" style="edgeLabel;html=1;align=center;verticalAlign=middle;resizable=0;points=[];" parent="1" vertex="1" connectable="0">
          <mxGeometry x="299" y="140" as="geometry">
            <mxPoint x="640" y="-11" as="offset" />
          </mxGeometry>
        </mxCell>
        <mxCell id="CiyafRM-gf9ek4KLn9La-137" value="F" style="edgeLabel;html=1;align=center;verticalAlign=middle;resizable=0;points=[];" parent="1" vertex="1" connectable="0">
          <mxGeometry x="312" y="142" as="geometry">
            <mxPoint x="641" y="-13" as="offset" />
          </mxGeometry>
        </mxCell>
        <mxCell id="CiyafRM-gf9ek4KLn9La-138" value="M" style="edgeLabel;html=1;align=center;verticalAlign=middle;resizable=0;points=[];" parent="1" vertex="1" connectable="0">
          <mxGeometry x="251" y="140" as="geometry">
            <mxPoint x="717" y="-11" as="offset" />
          </mxGeometry>
        </mxCell>
        <mxCell id="CiyafRM-gf9ek4KLn9La-139" value="T" style="edgeLabel;html=1;align=center;verticalAlign=middle;resizable=0;points=[];" parent="1" vertex="1" connectable="0">
          <mxGeometry x="265" y="136" as="geometry">
            <mxPoint x="717" y="-7" as="offset" />
          </mxGeometry>
        </mxCell>
        <mxCell id="CiyafRM-gf9ek4KLn9La-140" value="W" style="edgeLabel;html=1;align=center;verticalAlign=middle;resizable=0;points=[];" parent="1" vertex="1" connectable="0">
          <mxGeometry x="284" y="137" as="geometry">
            <mxPoint x="716" y="-8" as="offset" />
          </mxGeometry>
        </mxCell>
        <mxCell id="CiyafRM-gf9ek4KLn9La-141" value="T" style="edgeLabel;html=1;align=center;verticalAlign=middle;resizable=0;points=[];" parent="1" vertex="1" connectable="0">
          <mxGeometry x="298" y="136" as="geometry">
            <mxPoint x="720" y="-7" as="offset" />
          </mxGeometry>
        </mxCell>
        <mxCell id="CiyafRM-gf9ek4KLn9La-142" value="F" style="edgeLabel;html=1;align=center;verticalAlign=middle;resizable=0;points=[];" parent="1" vertex="1" connectable="0">
          <mxGeometry x="321" y="134" as="geometry">
            <mxPoint x="711" y="-5" as="offset" />
          </mxGeometry>
        </mxCell>
        <mxCell id="CiyafRM-gf9ek4KLn9La-143" value="&lt;font style=&quot;font-size: 14px;&quot;&gt;Planned time (week number)&lt;/font&gt;" style="text;html=1;align=center;verticalAlign=middle;resizable=0;points=[];autosize=1;strokeColor=none;fillColor=none;" parent="1" vertex="1">
          <mxGeometry x="234" y="48" width="200" height="30" as="geometry" />
        </mxCell>
        <mxCell id="765mVnRVJmWCi95svev6-1" value="F" style="text;html=1;align=center;verticalAlign=middle;resizable=0;points=[];autosize=1;strokeColor=none;fillColor=none;" parent="1" vertex="1">
          <mxGeometry x="295" y="113.44" width="30" height="30" as="geometry" />
        </mxCell>
        <mxCell id="bnBJ0OR8efubqq6eYce0-1" value="" style="endArrow=none;html=1;rounded=0;" edge="1" parent="1">
          <mxGeometry width="50" height="50" relative="1" as="geometry">
            <mxPoint x="200" y="560" as="sourcePoint" />
            <mxPoint x="200" y="140" as="targetPoint" />
          </mxGeometry>
        </mxCell>
        <mxCell id="bnBJ0OR8efubqq6eYce0-2" value="M" style="text;html=1;align=center;verticalAlign=middle;resizable=0;points=[];autosize=1;strokeColor=none;fillColor=none;" vertex="1" parent="1">
          <mxGeometry x="234" y="113.44" width="30" height="30" as="geometry" />
        </mxCell>
        <mxCell id="bnBJ0OR8efubqq6eYce0-3" value="T" style="text;html=1;align=center;verticalAlign=middle;resizable=0;points=[];autosize=1;strokeColor=none;fillColor=none;" vertex="1" parent="1">
          <mxGeometry x="249" y="113.44" width="30" height="30" as="geometry" />
        </mxCell>
        <mxCell id="bnBJ0OR8efubqq6eYce0-4" value="W" style="text;html=1;align=center;verticalAlign=middle;resizable=0;points=[];autosize=1;strokeColor=none;fillColor=none;" vertex="1" parent="1">
          <mxGeometry x="264" y="113.44" width="30" height="30" as="geometry" />
        </mxCell>
        <mxCell id="bnBJ0OR8efubqq6eYce0-5" value="T" style="text;html=1;align=center;verticalAlign=middle;resizable=0;points=[];autosize=1;strokeColor=none;fillColor=none;" vertex="1" parent="1">
          <mxGeometry x="281" y="113.44" width="30" height="30" as="geometry" />
        </mxCell>
        <mxCell id="bnBJ0OR8efubqq6eYce0-6" value="" style="endArrow=none;html=1;rounded=0;exitX=0.2;exitY=0.219;exitDx=0;exitDy=0;exitPerimeter=0;" edge="1" parent="1" source="bnBJ0OR8efubqq6eYce0-2">
          <mxGeometry width="50" height="50" relative="1" as="geometry">
            <mxPoint x="540" y="320" as="sourcePoint" />
            <mxPoint x="1040" y="120" as="targetPoint" />
          </mxGeometry>
        </mxCell>
        <mxCell id="bnBJ0OR8efubqq6eYce0-7" value="" style="endArrow=none;html=1;rounded=0;" edge="1" parent="1">
          <mxGeometry width="50" height="50" relative="1" as="geometry">
            <mxPoint x="200" y="140" as="sourcePoint" />
            <mxPoint x="1040" y="140" as="targetPoint" />
          </mxGeometry>
        </mxCell>
        <mxCell id="bnBJ0OR8efubqq6eYce0-8" value="&lt;font style=&quot;font-size: 15px;&quot;&gt;1&lt;/font&gt;" style="text;html=1;align=center;verticalAlign=middle;resizable=0;points=[];autosize=1;strokeColor=none;fillColor=none;" vertex="1" parent="1">
          <mxGeometry x="205" y="170" width="30" height="30" as="geometry" />
        </mxCell>
        <mxCell id="bnBJ0OR8efubqq6eYce0-9" value="&lt;font style=&quot;font-size: 15px;&quot;&gt;2&lt;/font&gt;" style="text;html=1;align=center;verticalAlign=middle;resizable=0;points=[];autosize=1;strokeColor=none;fillColor=none;" vertex="1" parent="1">
          <mxGeometry x="205" y="208" width="30" height="30" as="geometry" />
        </mxCell>
        <mxCell id="bnBJ0OR8efubqq6eYce0-12" value="&lt;font style=&quot;font-size: 15px;&quot;&gt;3&lt;/font&gt;" style="text;html=1;align=center;verticalAlign=middle;resizable=0;points=[];autosize=1;strokeColor=none;fillColor=none;" vertex="1" parent="1">
          <mxGeometry x="205" y="248" width="30" height="30" as="geometry" />
        </mxCell>
        <mxCell id="bnBJ0OR8efubqq6eYce0-13" value="&lt;font style=&quot;font-size: 15px;&quot;&gt;4&lt;/font&gt;" style="text;html=1;align=center;verticalAlign=middle;resizable=0;points=[];autosize=1;strokeColor=none;fillColor=none;" vertex="1" parent="1">
          <mxGeometry x="205" y="288" width="30" height="30" as="geometry" />
        </mxCell>
        <mxCell id="bnBJ0OR8efubqq6eYce0-16" value="&lt;font style=&quot;font-size: 15px;&quot;&gt;5&lt;/font&gt;" style="text;html=1;align=center;verticalAlign=middle;resizable=0;points=[];autosize=1;strokeColor=none;fillColor=none;" vertex="1" parent="1">
          <mxGeometry x="205" y="328" width="30" height="30" as="geometry" />
        </mxCell>
        <mxCell id="bnBJ0OR8efubqq6eYce0-19" value="&lt;font style=&quot;font-size: 15px;&quot;&gt;6&lt;/font&gt;" style="text;html=1;align=center;verticalAlign=middle;resizable=0;points=[];autosize=1;strokeColor=none;fillColor=none;" vertex="1" parent="1">
          <mxGeometry x="205" y="368" width="30" height="30" as="geometry" />
        </mxCell>
        <mxCell id="bnBJ0OR8efubqq6eYce0-20" value="&lt;font style=&quot;font-size: 15px;&quot;&gt;7&lt;/font&gt;" style="text;html=1;align=center;verticalAlign=middle;resizable=0;points=[];autosize=1;strokeColor=none;fillColor=none;" vertex="1" parent="1">
          <mxGeometry x="205" y="410" width="30" height="30" as="geometry" />
        </mxCell>
        <mxCell id="bnBJ0OR8efubqq6eYce0-21" value="&lt;font style=&quot;font-size: 15px;&quot;&gt;8&lt;/font&gt;" style="text;html=1;align=center;verticalAlign=middle;resizable=0;points=[];autosize=1;strokeColor=none;fillColor=none;" vertex="1" parent="1">
          <mxGeometry x="205" y="450" width="30" height="30" as="geometry" />
        </mxCell>
        <mxCell id="bnBJ0OR8efubqq6eYce0-22" value="&lt;font style=&quot;font-size: 15px;&quot;&gt;9&lt;/font&gt;" style="text;html=1;align=center;verticalAlign=middle;resizable=0;points=[];autosize=1;strokeColor=none;fillColor=none;" vertex="1" parent="1">
          <mxGeometry x="205" y="490" width="30" height="30" as="geometry" />
        </mxCell>
        <mxCell id="bnBJ0OR8efubqq6eYce0-23" value="&lt;font style=&quot;font-size: 15px;&quot;&gt;10&lt;/font&gt;" style="text;html=1;align=center;verticalAlign=middle;resizable=0;points=[];autosize=1;strokeColor=none;fillColor=none;" vertex="1" parent="1">
          <mxGeometry x="198" y="530" width="40" height="30" as="geometry" />
        </mxCell>
        <mxCell id="bnBJ0OR8efubqq6eYce0-25" value="" style="endArrow=none;html=1;rounded=0;" edge="1" parent="1">
          <mxGeometry width="50" height="50" relative="1" as="geometry">
            <mxPoint x="200" y="560" as="sourcePoint" />
            <mxPoint x="1040" y="560" as="targetPoint" />
            <Array as="points">
              <mxPoint x="350" y="560" />
            </Array>
          </mxGeometry>
        </mxCell>
        <mxCell id="bnBJ0OR8efubqq6eYce0-26" value="" style="endArrow=none;dashed=1;html=1;rounded=0;exitX=-0.157;exitY=0.947;exitDx=0;exitDy=0;exitPerimeter=0;" edge="1" parent="1" source="bnBJ0OR8efubqq6eYce0-8">
          <mxGeometry width="50" height="50" relative="1" as="geometry">
            <mxPoint x="198.00000000000009" y="208.80000000000007" as="sourcePoint" />
            <mxPoint x="1040" y="198" as="targetPoint" />
          </mxGeometry>
        </mxCell>
        <mxCell id="bnBJ0OR8efubqq6eYce0-28" value="" style="endArrow=none;dashed=1;html=1;rounded=0;exitX=0.57;exitY=0.987;exitDx=0;exitDy=0;exitPerimeter=0;" edge="1" parent="1" source="bnBJ0OR8efubqq6eYce0-74">
          <mxGeometry width="50" height="50" relative="1" as="geometry">
            <mxPoint x="200" y="280" as="sourcePoint" />
            <mxPoint x="1040" y="280" as="targetPoint" />
          </mxGeometry>
        </mxCell>
        <mxCell id="bnBJ0OR8efubqq6eYce0-29" value="" style="endArrow=none;dashed=1;html=1;rounded=0;" edge="1" parent="1" source="bnBJ0OR8efubqq6eYce0-64">
          <mxGeometry width="50" height="50" relative="1" as="geometry">
            <mxPoint x="205" y="318.4" as="sourcePoint" />
            <mxPoint x="1043" y="318" as="targetPoint" />
          </mxGeometry>
        </mxCell>
        <mxCell id="bnBJ0OR8efubqq6eYce0-30" value="" style="endArrow=none;dashed=1;html=1;rounded=0;exitX=-0.1;exitY=1.027;exitDx=0;exitDy=0;exitPerimeter=0;" edge="1" parent="1" source="bnBJ0OR8efubqq6eYce0-16">
          <mxGeometry width="50" height="50" relative="1" as="geometry">
            <mxPoint x="630" y="320" as="sourcePoint" />
            <mxPoint x="1040" y="360" as="targetPoint" />
          </mxGeometry>
        </mxCell>
        <mxCell id="bnBJ0OR8efubqq6eYce0-31" value="" style="endArrow=none;dashed=1;html=1;rounded=0;exitX=-0.1;exitY=1.027;exitDx=0;exitDy=0;exitPerimeter=0;" edge="1" parent="1" source="bnBJ0OR8efubqq6eYce0-19">
          <mxGeometry width="50" height="50" relative="1" as="geometry">
            <mxPoint x="630" y="320" as="sourcePoint" />
            <mxPoint x="1040" y="400" as="targetPoint" />
          </mxGeometry>
        </mxCell>
        <mxCell id="bnBJ0OR8efubqq6eYce0-32" value="" style="endArrow=none;dashed=1;html=1;rounded=0;exitX=-0.127;exitY=1.013;exitDx=0;exitDy=0;exitPerimeter=0;" edge="1" parent="1" source="bnBJ0OR8efubqq6eYce0-20">
          <mxGeometry width="50" height="50" relative="1" as="geometry">
            <mxPoint x="630" y="320" as="sourcePoint" />
            <mxPoint x="1040" y="440" as="targetPoint" />
          </mxGeometry>
        </mxCell>
        <mxCell id="bnBJ0OR8efubqq6eYce0-33" value="" style="endArrow=none;dashed=1;html=1;rounded=0;exitX=-0.073;exitY=0.987;exitDx=0;exitDy=0;exitPerimeter=0;" edge="1" parent="1" source="bnBJ0OR8efubqq6eYce0-21">
          <mxGeometry width="50" height="50" relative="1" as="geometry">
            <mxPoint x="630" y="320" as="sourcePoint" />
            <mxPoint x="1040" y="480" as="targetPoint" />
          </mxGeometry>
        </mxCell>
        <mxCell id="bnBJ0OR8efubqq6eYce0-34" value="" style="endArrow=none;dashed=1;html=1;rounded=0;exitX=-0.153;exitY=0.96;exitDx=0;exitDy=0;exitPerimeter=0;" edge="1" parent="1" source="bnBJ0OR8efubqq6eYce0-22">
          <mxGeometry width="50" height="50" relative="1" as="geometry">
            <mxPoint x="630" y="320" as="sourcePoint" />
            <mxPoint x="1040" y="519" as="targetPoint" />
          </mxGeometry>
        </mxCell>
        <mxCell id="bnBJ0OR8efubqq6eYce0-35" value="" style="endArrow=none;html=1;rounded=0;" edge="1" parent="1">
          <mxGeometry width="50" height="50" relative="1" as="geometry">
            <mxPoint x="570" y="316" as="sourcePoint" />
            <mxPoint x="1040" y="560" as="targetPoint" />
          </mxGeometry>
        </mxCell>
        <mxCell id="bnBJ0OR8efubqq6eYce0-36" value="" style="line;strokeWidth=4;direction=south;html=1;perimeter=backbonePerimeter;points=[];outlineConnect=0;" vertex="1" parent="1">
          <mxGeometry x="380" y="140" width="70" height="90" as="geometry" />
        </mxCell>
        <mxCell id="bnBJ0OR8efubqq6eYce0-37" value="" style="endArrow=classic;html=1;rounded=0;" edge="1" parent="1">
          <mxGeometry width="50" height="50" relative="1" as="geometry">
            <mxPoint x="425" y="62.41" as="sourcePoint" />
            <mxPoint x="475" y="62.41" as="targetPoint" />
          </mxGeometry>
        </mxCell>
        <mxCell id="bnBJ0OR8efubqq6eYce0-38" value="&lt;font style=&quot;font-size: 14px;&quot;&gt;Actual Time&lt;/font&gt;" style="text;html=1;align=center;verticalAlign=middle;resizable=0;points=[];autosize=1;strokeColor=none;fillColor=none;rotation=-90;" vertex="1" parent="1">
          <mxGeometry x="130" y="163.2" width="100" height="30" as="geometry" />
        </mxCell>
        <mxCell id="bnBJ0OR8efubqq6eYce0-39" value="&lt;font style=&quot;font-size: 14px;&quot;&gt;(week number)&amp;nbsp;&lt;/font&gt;" style="text;html=1;align=center;verticalAlign=middle;resizable=0;points=[];autosize=1;strokeColor=none;fillColor=none;rotation=-90;" vertex="1" parent="1">
          <mxGeometry x="120" y="250.2" width="120" height="30" as="geometry" />
        </mxCell>
        <mxCell id="bnBJ0OR8efubqq6eYce0-40" value="" style="endArrow=classic;html=1;rounded=0;" edge="1" parent="1">
          <mxGeometry width="50" height="50" relative="1" as="geometry">
            <mxPoint x="179.41" y="318" as="sourcePoint" />
            <mxPoint x="179.41" y="368" as="targetPoint" />
          </mxGeometry>
        </mxCell>
        <mxCell id="bnBJ0OR8efubqq6eYce0-41" value="" style="line;strokeWidth=4;direction=south;html=1;perimeter=backbonePerimeter;points=[];outlineConnect=0;" vertex="1" parent="1">
          <mxGeometry x="525" y="140" width="10" height="50" as="geometry" />
        </mxCell>
        <mxCell id="bnBJ0OR8efubqq6eYce0-42" value="" style="line;strokeWidth=4;direction=south;html=1;perimeter=backbonePerimeter;points=[];outlineConnect=0;rotation=-35;" vertex="1" parent="1">
          <mxGeometry x="545.67" y="180.6" width="10" height="79.28" as="geometry" />
        </mxCell>
        <mxCell id="bnBJ0OR8efubqq6eYce0-43" value="" style="line;strokeWidth=4;direction=south;html=1;perimeter=backbonePerimeter;points=[];outlineConnect=0;" vertex="1" parent="1">
          <mxGeometry x="570" y="248" width="10" height="68" as="geometry" />
        </mxCell>
        <mxCell id="bnBJ0OR8efubqq6eYce0-44" value="" style="line;strokeWidth=4;direction=south;html=1;perimeter=backbonePerimeter;points=[];outlineConnect=0;" vertex="1" parent="1">
          <mxGeometry x="650" y="140" width="10" height="58" as="geometry" />
        </mxCell>
        <mxCell id="bnBJ0OR8efubqq6eYce0-46" value="" style="endArrow=none;html=1;rounded=0;" edge="1" parent="1" target="bnBJ0OR8efubqq6eYce0-45">
          <mxGeometry width="50" height="50" relative="1" as="geometry">
            <mxPoint x="240" y="140" as="sourcePoint" />
            <mxPoint x="1040" y="560" as="targetPoint" />
          </mxGeometry>
        </mxCell>
        <mxCell id="bnBJ0OR8efubqq6eYce0-45" value="" style="shape=waypoint;sketch=0;fillStyle=solid;size=6;pointerEvents=1;points=[];fillColor=none;resizable=0;rotatable=0;perimeter=centerPerimeter;snapToPoint=1;fontSize=13;" vertex="1" parent="1">
          <mxGeometry x="405" y="218" width="20" height="20" as="geometry" />
        </mxCell>
        <mxCell id="bnBJ0OR8efubqq6eYce0-48" value="" style="endArrow=none;html=1;rounded=0;" edge="1" parent="1" source="bnBJ0OR8efubqq6eYce0-45" target="bnBJ0OR8efubqq6eYce0-47">
          <mxGeometry width="50" height="50" relative="1" as="geometry">
            <mxPoint x="415" y="228" as="sourcePoint" />
            <mxPoint x="1040" y="560" as="targetPoint" />
          </mxGeometry>
        </mxCell>
        <mxCell id="bnBJ0OR8efubqq6eYce0-47" value="" style="shape=waypoint;sketch=0;fillStyle=solid;size=6;pointerEvents=1;points=[];fillColor=none;resizable=0;rotatable=0;perimeter=centerPerimeter;snapToPoint=1;" vertex="1" parent="1">
          <mxGeometry x="565" y="308" width="20" height="20" as="geometry" />
        </mxCell>
        <mxCell id="bnBJ0OR8efubqq6eYce0-49" value="" style="line;strokeWidth=4;direction=south;html=1;perimeter=backbonePerimeter;points=[];outlineConnect=0;rotation=-30;" vertex="1" parent="1">
          <mxGeometry x="664.25" y="193.2" width="12.5" height="57" as="geometry" />
        </mxCell>
        <mxCell id="bnBJ0OR8efubqq6eYce0-50" value="" style="line;strokeWidth=4;direction=south;html=1;perimeter=backbonePerimeter;points=[];outlineConnect=0;" vertex="1" parent="1">
          <mxGeometry x="677.5" y="248" width="10" height="72" as="geometry" />
        </mxCell>
        <mxCell id="bnBJ0OR8efubqq6eYce0-51" value="" style="line;strokeWidth=4;direction=south;html=1;perimeter=backbonePerimeter;points=[];outlineConnect=0;rotation=-45;" vertex="1" parent="1">
          <mxGeometry x="692.17" y="311.17" width="10" height="40" as="geometry" />
        </mxCell>
        <mxCell id="bnBJ0OR8efubqq6eYce0-52" value="" style="line;strokeWidth=4;direction=south;html=1;perimeter=backbonePerimeter;points=[];outlineConnect=0;" vertex="1" parent="1">
          <mxGeometry x="702.17" y="342" width="10" height="48" as="geometry" />
        </mxCell>
        <mxCell id="bnBJ0OR8efubqq6eYce0-56" value="" style="endArrow=none;html=1;rounded=0;" edge="1" parent="1">
          <mxGeometry width="50" height="50" relative="1" as="geometry">
            <mxPoint x="720" y="560" as="sourcePoint" />
            <mxPoint x="720" y="80" as="targetPoint" />
          </mxGeometry>
        </mxCell>
        <mxCell id="bnBJ0OR8efubqq6eYce0-57" value="" style="line;strokeWidth=4;direction=south;html=1;perimeter=backbonePerimeter;points=[];outlineConnect=0;" vertex="1" parent="1">
          <mxGeometry x="780" y="142" width="10" height="108" as="geometry" />
        </mxCell>
        <mxCell id="bnBJ0OR8efubqq6eYce0-58" value="" style="line;strokeWidth=4;direction=south;html=1;perimeter=backbonePerimeter;points=[];outlineConnect=0;rotation=-30;" vertex="1" parent="1">
          <mxGeometry x="800.5" y="242.55" width="10" height="80" as="geometry" />
        </mxCell>
        <mxCell id="bnBJ0OR8efubqq6eYce0-61" value="" style="line;strokeWidth=4;direction=south;html=1;perimeter=backbonePerimeter;points=[];outlineConnect=0;" vertex="1" parent="1">
          <mxGeometry x="820" y="316" width="10" height="84" as="geometry" />
        </mxCell>
        <mxCell id="bnBJ0OR8efubqq6eYce0-62" value="" style="line;strokeWidth=4;direction=south;html=1;perimeter=backbonePerimeter;points=[];outlineConnect=0;" vertex="1" parent="1">
          <mxGeometry x="905" y="140" width="10" height="78" as="geometry" />
        </mxCell>
        <mxCell id="bnBJ0OR8efubqq6eYce0-63" value="" style="line;strokeWidth=4;direction=south;html=1;perimeter=backbonePerimeter;points=[];outlineConnect=0;rotation=-30;" vertex="1" parent="1">
          <mxGeometry x="925" y="207.99999999999997" width="10" height="89.46" as="geometry" />
        </mxCell>
        <mxCell id="bnBJ0OR8efubqq6eYce0-65" value="" style="shape=waypoint;sketch=0;fillStyle=solid;size=6;pointerEvents=1;points=[];fillColor=none;resizable=0;rotatable=0;perimeter=centerPerimeter;snapToPoint=1;" vertex="1" parent="1">
          <mxGeometry x="697.17" y="378" width="20" height="20" as="geometry" />
        </mxCell>
        <mxCell id="bnBJ0OR8efubqq6eYce0-66" value="" style="endArrow=none;dashed=1;html=1;rounded=0;" edge="1" parent="1" source="bnBJ0OR8efubqq6eYce0-64">
          <mxGeometry width="50" height="50" relative="1" as="geometry">
            <mxPoint x="870.4200000000001" y="355.6499999999999" as="sourcePoint" />
            <mxPoint x="960" y="318.00000000000006" as="targetPoint" />
          </mxGeometry>
        </mxCell>
        <mxCell id="bnBJ0OR8efubqq6eYce0-70" value="" style="endArrow=none;dashed=1;html=1;rounded=0;exitX=-0.188;exitY=1.029;exitDx=0;exitDy=0;exitPerimeter=0;" edge="1" parent="1" source="bnBJ0OR8efubqq6eYce0-9">
          <mxGeometry width="50" height="50" relative="1" as="geometry">
            <mxPoint x="440" y="360" as="sourcePoint" />
            <mxPoint x="1040" y="239" as="targetPoint" />
          </mxGeometry>
        </mxCell>
        <mxCell id="bnBJ0OR8efubqq6eYce0-71" value="" style="line;strokeWidth=4;direction=south;html=1;perimeter=backbonePerimeter;points=[];outlineConnect=0;rotation=-30;" vertex="1" parent="1">
          <mxGeometry x="960" y="368" width="10" height="38" as="geometry" />
        </mxCell>
        <mxCell id="bnBJ0OR8efubqq6eYce0-72" value="" style="line;strokeWidth=4;direction=south;html=1;perimeter=backbonePerimeter;points=[];outlineConnect=0;" vertex="1" parent="1">
          <mxGeometry x="970" y="400" width="10" height="70" as="geometry" />
        </mxCell>
        <mxCell id="bnBJ0OR8efubqq6eYce0-73" value="&lt;font style=&quot;font-size: 13px;&quot;&gt;Requirement &lt;br&gt;Analysis&lt;/font&gt;" style="text;html=1;align=center;verticalAlign=middle;resizable=0;points=[];autosize=1;strokeColor=none;fillColor=none;rotation=-90;" vertex="1" parent="1">
          <mxGeometry x="390" y="170" width="100" height="40" as="geometry" />
        </mxCell>
        <mxCell id="bnBJ0OR8efubqq6eYce0-75" value="" style="endArrow=none;dashed=1;html=1;rounded=0;" edge="1" parent="1">
          <mxGeometry width="50" height="50" relative="1" as="geometry">
            <mxPoint x="200" y="280" as="sourcePoint" />
            <mxPoint x="570" y="280" as="targetPoint" />
          </mxGeometry>
        </mxCell>
        <mxCell id="bnBJ0OR8efubqq6eYce0-74" value="&lt;font style=&quot;font-size: 13px;&quot;&gt;Designing&lt;br&gt;&lt;/font&gt;" style="text;html=1;align=center;verticalAlign=middle;resizable=0;points=[];autosize=1;strokeColor=none;fillColor=none;rotation=-90;" vertex="1" parent="1">
          <mxGeometry x="545.67" y="269" width="80" height="30" as="geometry" />
        </mxCell>
        <mxCell id="bnBJ0OR8efubqq6eYce0-76" value="&lt;font style=&quot;font-size: 13px;&quot;&gt;Implementation&lt;br&gt;Coding&lt;/font&gt;" style="text;html=1;align=center;verticalAlign=middle;resizable=0;points=[];autosize=1;strokeColor=none;fillColor=none;rotation=-90;" vertex="1" parent="1">
          <mxGeometry x="650.0000000000001" y="243" width="110" height="40" as="geometry" />
        </mxCell>
        <mxCell id="bnBJ0OR8efubqq6eYce0-78" value="&lt;font style=&quot;font-size: 13px;&quot;&gt;Deployment and Maintenance&lt;/font&gt;" style="text;html=1;align=center;verticalAlign=middle;resizable=0;points=[];autosize=1;strokeColor=none;fillColor=none;rotation=-90;" vertex="1" parent="1">
          <mxGeometry x="895" y="368" width="200" height="30" as="geometry" />
        </mxCell>
        <mxCell id="bnBJ0OR8efubqq6eYce0-79" value="" style="endArrow=none;dashed=1;html=1;rounded=0;exitX=0.001;exitY=1.114;exitDx=0;exitDy=0;exitPerimeter=0;" edge="1" parent="1" source="bnBJ0OR8efubqq6eYce0-39" target="bnBJ0OR8efubqq6eYce0-77">
          <mxGeometry width="50" height="50" relative="1" as="geometry">
            <mxPoint x="198" y="318" as="sourcePoint" />
            <mxPoint x="953" y="318" as="targetPoint" />
          </mxGeometry>
        </mxCell>
        <mxCell id="bnBJ0OR8efubqq6eYce0-77" value="&lt;font style=&quot;font-size: 13px;&quot;&gt;Testing and Documentation&lt;/font&gt;" style="text;html=1;align=center;verticalAlign=middle;resizable=0;points=[];autosize=1;strokeColor=none;fillColor=none;rotation=-90;" vertex="1" parent="1">
          <mxGeometry x="755" y="303" width="180" height="30" as="geometry" />
        </mxCell>
        <mxCell id="bnBJ0OR8efubqq6eYce0-80" value="" style="endArrow=none;dashed=1;html=1;rounded=0;" edge="1" parent="1" source="bnBJ0OR8efubqq6eYce0-77" target="bnBJ0OR8efubqq6eYce0-64">
          <mxGeometry width="50" height="50" relative="1" as="geometry">
            <mxPoint x="860" y="318" as="sourcePoint" />
            <mxPoint x="960" y="318.00000000000006" as="targetPoint" />
          </mxGeometry>
        </mxCell>
        <mxCell id="bnBJ0OR8efubqq6eYce0-64" value="" style="line;strokeWidth=4;direction=south;html=1;perimeter=backbonePerimeter;points=[];outlineConnect=0;" vertex="1" parent="1">
          <mxGeometry x="950" y="291.09" width="10" height="80.17" as="geometry" />
        </mxCell>
      </root>
    </mxGraphModel>
  </diagram>
</mxfile>
